# xmcd
#
# Track frame offsets: 
#        150
#        5405
#        25130
#        42367
#        69251
#        82871
#        100205
#        120336
#        142602
#        163426
#        187597
#
# Disc length: 2787 seconds
#
# Revision: 0
# Processed by: cddbd v1.5.2PL0 Copyright (c) Steve Scherf et al.
# Submitted via: ExactAudioCopy v1.0b3
#
DISCID=770ae10b
DTITLE=Mong Thi - Noi Buon Hoa Phuong
DYEAR=2000
DGENRE=
TTITLE0=Loi gioi thieu
TTITLE1=Noi buon hoa phuong 2
TTITLE2=Khong dam dau
TTITLE3=Ha buon
TTITLE4=Phuong buon
TTITLE5=Co ban hoc
TTITLE6=Gia biet truong xua
TTITLE7=Cung buon thang ha
TTITLE8=Ba thang ta tu
TTITLE9=Truong cu tinh xua
TTITLE10=Ve goi tieng he
EXTD=
EXTT0=
EXTT1=
EXTT2=
EXTT3=
EXTT4=
EXTT5=
EXTT6=
EXTT7=
EXTT8=
EXTT9=
EXTT10=
PLAYORDER=
